. 
  
http://www.torrenting.com/        :     Greatest Movie Tracker on The Net!!!
 
http://www.Torrenting.com          :     Once & For all ;)


               www . Torrenting . Com 

(((((((((((((= Enjoy No RAR releases =))))))))))))))))))))


...................................NFO:....................................

.[pre]  
    *********** ****    ****      ***      ******** *********** ****    *** **********
           *+*     +*+*+* *+*+*+   *+* *+*   *+*    *+*    *+*     *+*+*   *+* *+*        
           +*+     +*+ +*+*+ +*+  +*+   +*+  +*+           +*+     *+*+*+  +*+ +*+        
           +$+     +$+  +*+  +$+ +$++*++$++* *$*           +$+     +$+ +*+ +$+ +$++*++$  
           +$+     +$+       +$+ +$+     +$+ +$+   +$+$    +$+     +$+  +$+$+$ +$+        
           $+$     $+$       $+$ $+$     $+$ $+$    $+$    $+$     $+$   $+$+$ $+$        
       $$$$$$$$$$$ $$$       $$$ $$$     $$$  $$$$$$$$ $$$$$$$$$$$ $$$    $$$$ $$$$$$$$$$     
                                                



                           Another Fine Release Brought to you from - IMAGiNE                   
                                                 

********************************************************************************************************************                                
                   Hobo With A Shotgun 2011 720p HDTV XViD AC3 5.1 - IMAGiNE
********************************************************************************************************************

Ripper ...........: IMAGiNE                                        IMDB Rating.......:7.9/10                             
Video Codec.......: XViD                                         Release Date......:07/04/11
Audio Codec.......:AC3                                           Theatre Date......:21/01/11 Limited
Audio Bitrate.....:384                                              Runtime.......:1h 26mn
Subtitles.........:NIL                                                 Language..........:ENGLISH
Resolution...... 1280 x 528                                      IMDb URL..........:http://www.imdb.com/title/tt1640459/


[color=yellow]DETAILS:[/color]

Video
ID                               : 0
Format                           : MPEG-4 Visual
Format profile                   : Advanced Simple@L5
Format settings, BVOP            : 2
Format settings, QPel            : No
Format settings, GMC             : No warppoints
Format settings, Matrix          : Default (MPEG)
Muxing mode                      : Packed bitstream
Codec ID                         : XVID
Codec ID/Hint                    : XviD
Duration                         : 1h 26mn
Bit rate                         : 5 061 Kbps
Width                            : 1 280 pixels
Height                           : 528 pixels
Display aspect ratio             : 2.40:1
Frame rate                       : 23.976 fps
Color space                      : YUV
Chroma subsampling               : 4:2:0
Bit depth                        : 8 bits
Scan type                        : Progressive
Compression mode                 : Lossy
Bits/(Pixel*Frame)               : 0.312
Stream size                      : 3.04 GiB (93%)
Writing library                  : XviD 61

Audio
ID                               : 1
Format                           : AC-3
Format/Info                      : Audio Coding 3
Mode extension                   : CM (complete main)
Codec ID                         : 2000
Duration                         : 1h 26mn
Bit rate mode                    : Constant
Bit rate                         : 384 Kbps
Channel(s)                       : 6 channels
Channel positions                : Front: L C R, Side: L R, LFE
Sampling rate                    : 48.0 KHz
Bit depth                        : 16 bits
Compression mode                 : Lossy
Stream size                      : 236 MiB (7%)
Alignment                        : Aligned on interleaves
Interleave, duration             : 42 ms (1.00 video frame)
Interleave, preload duration     : 512 ms



[color=yellow]SOURCES:[/color]

VIDEO:Hobo With A Shotgun 2011 1080i HDTV MPEG2 - RAS.ts ......... Thanks 
AUDIO:Hobo With A Shotgun 2011 1080i HDTV MPEG2 - RAS.ts ......... Thanks 

[color=yellow]NOTES:[/color]

IMAGiNE bringing you another release..........Hobo with a shotgun 

Ok here we go again with this film,but this time round using the 1080i source and making a nice
720p rip with 5.1 sound :)
The 1080i source in our opinion wasn't very good considering ....colours looked whacked as in white was a off
yellow look and the video contained alot of noise.
Work done ...being honest a dam lot and it also took just under 20hrs to encode and that was on a ripbox :lol:
Anyway we changed all the rgb colours to make them natural and also actually lowered the chroma,increased brightness slightly
and the one that made it take so long was a good video denoise that did several passes over it and remove 99% of the noise and
then we added some sharpness back to the video without creating more noise.
The audio we just muxed back to our rip,but had to had a 200ms offset as it was oos when relaying over our encode so.....

Anyway enjoy this sweet looking bloodfest ;-)


[color=yellow]SCREENS:[/color]



[color=yellow]GREETS:[/color]

FLAWL3SS,ViSiON,Rx,ELEKTRI4KA,Serenity,Autotron,CiNEDUB,CRYS,T0XiCiNK ,
And to all the other p2p grps past and present 

[COLOR=RED]Looking for these,syncers,cammers,audio,silver supplier.....Have anything to offer????......
Contact us imaginegroup@hushmail.com[/COLOR][/pre]